<svg xmlns="http://www.w3.org/2000/svg" viewBox="0 0 32 32" fill="none">
  <circle cx="16" cy="16" r="16" fill="#2775CA"/>
  <path d="M20.4 18.4c0-2.2-1.3-3-3.9-3.3-1.9-.3-2.3-.8-2.3-1.7s.7-1.5 2.1-1.5c1.2 0 1.9.4 2.2 1.4.1.2.2.3.4.3h1c.2 0 .4-.2.3-.4-.3-1.4-1.3-2.5-2.8-2.8V9c0-.2-.2-.4-.5-.4h-.9c-.2 0-.4.2-.5.4v1.3c-2 .3-3.2 1.6-3.2 3.2 0 2.1 1.3 2.8 3.9 3.2 1.7.3 2.3.9 2.3 1.8 0 1-.9 1.7-2.1 1.7-1.6 0-2.2-.7-2.4-1.5-.1-.2-.2-.3-.4-.3h-1.1c-.2 0-.4.2-.3.4.3 1.6 1.4 2.7 3.3 3v1.4c0 .2.2.4.5.4h.9c.2 0 .4-.2.5-.4v-1.4c2-.3 3.2-1.7 3.2-3.4z" fill="#fff"/>
</svg>
