<svg xmlns="http://www.w3.org/2000/svg" viewBox="0 0 32 32" fill="none">
  <circle cx="16" cy="16" r="16" fill="#26A17B"/>
  <path d="M17.9 17v-.1c-.1 0-.8-.1-2-.1s-1.8.1-2 .1v.1c-3.7.2-6.5.8-6.5 1.6s2.8 1.5 6.5 1.6v5.1h3.9V20.2c3.7-.2 6.5-.8 6.5-1.6s-2.7-1.4-6.4-1.6zm0 2.7v-.1c-.3 0-.9.1-1.9.1-0.8 0-1.5-.1-2-.1v.1c-3.3-.1-5.8-.7-5.8-1.3s2.5-1.2 5.8-1.3v2.1c.5 0 1.2.1 2 .1 1 0 1.6-.1 1.9-.1v-2.1c3.3.1 5.8.7 5.8 1.3s-2.5 1.2-5.8 1.3zM17.9 14.9V12.5h5.4V9.6H8.6v2.9h5.4v2.4c-3.8.2-6.6.9-6.6 1.8s2.9 1.6 6.6 1.8v6.4h3.9v-6.4c3.7-.2 6.6-.9 6.6-1.8s-2.9-1.6-6.6-1.8z" fill="#fff"/>
</svg>
