<svg xmlns="http://www.w3.org/2000/svg" viewBox="0 0 32 32" fill="none">
  <circle cx="16" cy="16" r="16" fill="#F09242"/>
  <path d="M21.4 13.6c.3-1.8-.9-2.7-2.5-3.3l.5-2.1-1.3-.3-.5 2c-.3-.1-.7-.1-1-.2l.5-2-1.3-.3-.5 2.1c-.3-.1-.5-.1-.8-.2l-1.7-.4-.3 1.4s.9.2.9.2c.5.1.6.5.6.8l-.7 2.7c0 .1.1.1.1.1l-.1 0-.9 3.7c-.1.2-.2.4-.6.3 0 0-.9-.2-.9-.2l-.6 1.5 1.6.4c.3.1.6.1.9.2l-.5 2.1 1.3.3.5-2.1c.4.1.7.2 1 .2l-.5 2.1 1.3.3.5-2.1c2.2.4 3.8.2 4.5-1.7.6-1.6 0-2.5-1.1-3.1.8-.2 1.4-.7 1.6-1.8zM19 18.6c-.4 1.7-3.2.8-4.1.6l.7-2.9c.9.2 3.8.7 3.4 2.3zm.4-4.1c-.4 1.6-2.7.8-3.5.6l.7-2.7c.8.2 3.2.6 2.8 2.1z" fill="#fff"/>
</svg>
